# xmcd
#
# Track frame offsets: 
#        150
#        19445
#        39828
#        61176
#        74262
#        91967
#        118484
#        138349
#        158580
#        177655
#        213633
#        230365
#
# Disc length: 3303 seconds
#
# Revision: 0
# Processed by: cddbd v1.5.2PL0 Copyright (c) Steve Scherf et al.
# Submitted via: ExactAudioCopyFreeDBPlugin 1.0
#
DISCID=a90ce50c
DTITLE=Ricardo Werther - Turning Point
DYEAR=2010
DGENRE=Blues
TTITLE0=Going In The Hole
TTITLE1=You Better Believe It Baby
TTITLE2=Folsom Prison Blues
TTITLE3=Go To Use Your Head
TTITLE4=Don't Marry A Fool
TTITLE5=Compared To What
TTITLE6=My Funny Valentine
TTITLE7=Find 'Em Fool 'Em And Forget 'Em
TTITLE8=Give Me A Penny
TTITLE9=Down By The River
TTITLE10=I've Got My Finger On Your Trigger
TTITLE11=Walk Out On You
EXTD=
EXTT0=
EXTT1=
EXTT2=
EXTT3=
EXTT4=
EXTT5=
EXTT6=
EXTT7=
EXTT8=
EXTT9=
EXTT10=
EXTT11=
PLAYORDER=
